<?xml version="1.0" encoding="UTF-8"?><svg xmlns="http://www.w3.org/2000/svg" xmlns:xlink="http://www.w3.org/1999/xlink" contentScriptType="application/ecmascript" contentStyleType="text/css" height="437px" preserveAspectRatio="none" style="width:826px;height:437px;" version="1.1" viewBox="0 0 826 437" width="826px" zoomAndPan="magnify">
    <defs>
        <filter height="300%" id="f101fz73ja5i7m" width="300%" x="-1" y="-1">
            <feGaussianBlur result="blurOut" stdDeviation="2.0"/>
            <feColorMatrix in="blurOut" result="blurOut2" type="matrix" values="0 0 0 0 0 0 0 0 0 0 0 0 0 0 0 0 0 0 .4 0"/>
            <feOffset dx="4.0" dy="4.0" in="blurOut2" result="blurOut3"/>
            <feBlend in="SourceGraphic" in2="blurOut3" mode="normal"/>
        </filter>
    </defs>
    <g>
        <text fill="#000000" font-family="sans-serif" font-size="14" font-weight="bold" lengthAdjust="spacingAndGlyphs" textLength="39" x="400.25" y="24.5332">Login</text>
        <line style="stroke: #A80036; stroke-width: 1.0; stroke-dasharray: 5.0,5.0;" x1="25" x2="25" y1="119.2188" y2="351.6797"/>
        <line style="stroke: #A80036; stroke-width: 1.0; stroke-dasharray: 5.0,5.0;" x1="185" x2="185" y1="119.2188" y2="351.6797"/>
        <line style="stroke: #A80036; stroke-width: 1.0; stroke-dasharray: 5.0,5.0;" x1="256" x2="256" y1="119.2188" y2="351.6797"/>
        <line style="stroke: #A80036; stroke-width: 1.0; stroke-dasharray: 5.0,5.0;" x1="331" x2="331" y1="119.2188" y2="351.6797"/>
        <line style="stroke: #A80036; stroke-width: 1.0; stroke-dasharray: 5.0,5.0;" x1="506.5" x2="506.5" y1="119.2188" y2="351.6797"/>
        <line style="stroke: #A80036; stroke-width: 1.0; stroke-dasharray: 5.0,5.0;" x1="632.5" x2="632.5" y1="119.2188" y2="351.6797"/>
        <line style="stroke: #A80036; stroke-width: 1.0; stroke-dasharray: 5.0,5.0;" x1="770.5" x2="770.5" y1="119.2188" y2="351.6797"/>
        <text fill="#000000" font-family="sans-serif" font-size="14" lengthAdjust="spacingAndGlyphs" textLength="29" x="8" y="116.1426">User</text>
        <ellipse cx="25.5" cy="44.6094" fill="#FEFECE" filter="url(#f101fz73ja5i7m)" rx="8" ry="8" style="stroke: #A80036; stroke-width: 2.0;"/>
        <path d="M25.5,52.6094 L25.5,79.6094 M12.5,60.6094 L38.5,60.6094 M25.5,79.6094 L12.5,94.6094 M25.5,79.6094 L38.5,94.6094 " fill="#FEFECE" filter="url(#f101fz73ja5i7m)" style="stroke: #A80036; stroke-width: 2.0;"/>
        <text fill="#000000" font-family="sans-serif" font-size="14" lengthAdjust="spacingAndGlyphs" textLength="29" x="8" y="365.2129">User</text>
        <ellipse cx="25.5" cy="378.2891" fill="#FEFECE" filter="url(#f101fz73ja5i7m)" rx="8" ry="8" style="stroke: #A80036; stroke-width: 2.0;"/>
        <path d="M25.5,386.2891 L25.5,413.2891 M12.5,394.2891 L38.5,394.2891 M25.5,413.2891 L12.5,428.2891 M25.5,413.2891 L38.5,428.2891 " fill="#FEFECE" filter="url(#f101fz73ja5i7m)" style="stroke: #A80036; stroke-width: 2.0;"/>
        <text fill="#000000" font-family="sans-serif" font-size="14" lengthAdjust="spacingAndGlyphs" textLength="55" x="155" y="116.1426">Index.jsp</text>
        <path d="M165,73.6094 L165,97.6094 M165,85.6094 L182,85.6094 " fill="#FEFECE" filter="url(#f101fz73ja5i7m)" style="stroke: #A80036; stroke-width: 2.0;"/>
        <ellipse cx="194" cy="85.6094" fill="#FEFECE" filter="url(#f101fz73ja5i7m)" rx="12" ry="12" style="stroke: #A80036; stroke-width: 2.0;"/>
        <text fill="#000000" font-family="sans-serif" font-size="14" lengthAdjust="spacingAndGlyphs" textLength="55" x="155" y="365.2129">Index.jsp</text>
        <path d="M165,372.2891 L165,396.2891 M165,384.2891 L182,384.2891 " fill="#FEFECE" filter="url(#f101fz73ja5i7m)" style="stroke: #A80036; stroke-width: 2.0;"/>
        <ellipse cx="194" cy="384.2891" fill="#FEFECE" filter="url(#f101fz73ja5i7m)" rx="12" ry="12" style="stroke: #A80036; stroke-width: 2.0;"/>
        <text fill="#000000" font-family="sans-serif" font-size="14" lengthAdjust="spacingAndGlyphs" textLength="55" x="226" y="116.1426">Shop.jsp</text>
        <path d="M236,73.6094 L236,97.6094 M236,85.6094 L253,85.6094 " fill="#FEFECE" filter="url(#f101fz73ja5i7m)" style="stroke: #A80036; stroke-width: 2.0;"/>
        <ellipse cx="265" cy="85.6094" fill="#FEFECE" filter="url(#f101fz73ja5i7m)" rx="12" ry="12" style="stroke: #A80036; stroke-width: 2.0;"/>
        <text fill="#000000" font-family="sans-serif" font-size="14" lengthAdjust="spacingAndGlyphs" textLength="55" x="226" y="365.2129">Shop.jsp</text>
        <path d="M236,372.2891 L236,396.2891 M236,384.2891 L253,384.2891 " fill="#FEFECE" filter="url(#f101fz73ja5i7m)" style="stroke: #A80036; stroke-width: 2.0;"/>
        <ellipse cx="265" cy="384.2891" fill="#FEFECE" filter="url(#f101fz73ja5i7m)" rx="12" ry="12" style="stroke: #A80036; stroke-width: 2.0;"/>
        <rect fill="#FEFECE" filter="url(#f101fz73ja5i7m)" height="31.6094" style="stroke: #A80036; stroke-width: 1.5;" width="64" x="297" y="82.6094"/>
        <text fill="#000000" font-family="sans-serif" font-size="14" lengthAdjust="spacingAndGlyphs" textLength="50" x="304" y="104.1426">Session</text>
        <rect fill="#FEFECE" filter="url(#f101fz73ja5i7m)" height="31.6094" style="stroke: #A80036; stroke-width: 1.5;" width="64" x="297" y="350.6797"/>
        <text fill="#000000" font-family="sans-serif" font-size="14" lengthAdjust="spacingAndGlyphs" textLength="50" x="304" y="372.2129">Session</text>
        <rect fill="#FEFECE" filter="url(#f101fz73ja5i7m)" height="31.6094" style="stroke: #A80036; stroke-width: 1.5;" width="93" x="458.5" y="82.6094"/>
        <text fill="#000000" font-family="sans-serif" font-size="14" lengthAdjust="spacingAndGlyphs" textLength="79" x="465.5" y="104.1426">LoginServlet</text>
        <rect fill="#FEFECE" filter="url(#f101fz73ja5i7m)" height="31.6094" style="stroke: #A80036; stroke-width: 1.5;" width="93" x="458.5" y="350.6797"/>
        <text fill="#000000" font-family="sans-serif" font-size="14" lengthAdjust="spacingAndGlyphs" textLength="79" x="465.5" y="372.2129">LoginServlet</text>
        <rect fill="#FEFECE" filter="url(#f101fz73ja5i7m)" height="31.6094" style="stroke: #A80036; stroke-width: 1.5;" width="130" x="565.5" y="82.6094"/>
        <text fill="#000000" font-family="sans-serif" font-size="14" lengthAdjust="spacingAndGlyphs" textLength="116" x="572.5" y="104.1426">DataAccessObject</text>
        <rect fill="#FEFECE" filter="url(#f101fz73ja5i7m)" height="31.6094" style="stroke: #A80036; stroke-width: 1.5;" width="130" x="565.5" y="350.6797"/>
        <text fill="#000000" font-family="sans-serif" font-size="14" lengthAdjust="spacingAndGlyphs" textLength="116" x="572.5" y="372.2129">DataAccessObject</text>
        <text fill="#000000" font-family="sans-serif" font-size="14" lengthAdjust="spacingAndGlyphs" textLength="116" x="709.5" y="116.1426">CupcakeWebshop</text>
        <path d="M752.5,65.6094 C752.5,55.6094 770.5,55.6094 770.5,55.6094 C770.5,55.6094 788.5,55.6094 788.5,65.6094 L788.5,91.6094 C788.5,101.6094 770.5,101.6094 770.5,101.6094 C770.5,101.6094 752.5,101.6094 752.5,91.6094 L752.5,65.6094 " fill="#FEFECE" filter="url(#f101fz73ja5i7m)" style="stroke: #000000; stroke-width: 1.5;"/>
        <path d="M752.5,65.6094 C752.5,75.6094 770.5,75.6094 770.5,75.6094 C770.5,75.6094 788.5,75.6094 788.5,65.6094 " fill="none" style="stroke: #000000; stroke-width: 1.5;"/>
        <text fill="#000000" font-family="sans-serif" font-size="14" lengthAdjust="spacingAndGlyphs" textLength="116" x="709.5" y="365.2129">CupcakeWebshop</text>
        <path d="M752.5,378.2891 C752.5,368.2891 770.5,368.2891 770.5,368.2891 C770.5,368.2891 788.5,368.2891 788.5,378.2891 L788.5,404.2891 C788.5,414.2891 770.5,414.2891 770.5,414.2891 C770.5,414.2891 752.5,414.2891 752.5,404.2891 L752.5,378.2891 " fill="#FEFECE" filter="url(#f101fz73ja5i7m)" style="stroke: #000000; stroke-width: 1.5;"/>
        <path d="M752.5,378.2891 C752.5,388.2891 770.5,388.2891 770.5,388.2891 C770.5,388.2891 788.5,388.2891 788.5,378.2891 " fill="none" style="stroke: #000000; stroke-width: 1.5;"/>
        <polygon fill="#A80036" points="173.5,147.2188,183.5,151.2188,173.5,155.2188,177.5,151.2188" style="stroke: #A80036; stroke-width: 1.0;"/>
        <line style="stroke: #A80036; stroke-width: 1.0;" x1="25.5" x2="179.5" y1="151.2188" y2="151.2188"/>
        <text fill="#000000" font-family="sans-serif" font-size="13" lengthAdjust="spacingAndGlyphs" textLength="136" x="32.5" y="146.7139">Enters login information</text>
        <polygon fill="#A80036" points="495,177.5703,505,181.5703,495,185.5703,499,181.5703" style="stroke: #A80036; stroke-width: 1.0;"/>
        <line style="stroke: #A80036; stroke-width: 1.0;" x1="185.5" x2="501" y1="181.5703" y2="181.5703"/>
        <text fill="#000000" font-family="sans-serif" font-size="13" lengthAdjust="spacingAndGlyphs" textLength="49" x="192.5" y="177.0654">forward()</text>
        <polygon fill="#A80036" points="620.5,207.9219,630.5,211.9219,620.5,215.9219,624.5,211.9219" style="stroke: #A80036; stroke-width: 1.0;"/>
        <line style="stroke: #A80036; stroke-width: 1.0;" x1="507" x2="626.5" y1="211.9219" y2="211.9219"/>
        <text fill="#000000" font-family="sans-serif" font-size="13" lengthAdjust="spacingAndGlyphs" textLength="99" x="514" y="207.417">checkCustomer()</text>
        <polygon fill="#A80036" points="758.5,238.2734,768.5,242.2734,758.5,246.2734,762.5,242.2734" style="stroke: #A80036; stroke-width: 1.0;"/>
        <line style="stroke: #A80036; stroke-width: 1.0;" x1="632.5" x2="764.5" y1="242.2734" y2="242.2734"/>
        <text fill="#000000" font-family="sans-serif" font-size="13" lengthAdjust="spacingAndGlyphs" textLength="89" x="639.5" y="237.7686">executeQuery()</text>
        <polygon fill="#A80036" points="342,268.625,332,272.625,342,276.625,338,272.625" style="stroke: #A80036; stroke-width: 1.0;"/>
        <line style="stroke: #A80036; stroke-width: 1.0;" x1="336" x2="506" y1="272.625" y2="272.625"/>
        <text fill="#000000" font-family="sans-serif" font-size="13" lengthAdjust="spacingAndGlyphs" textLength="152" x="348" y="268.1201">getSession().setAttribute()</text>
        <polygon fill="#A80036" points="267.5,298.9766,257.5,302.9766,267.5,306.9766,263.5,302.9766" style="stroke: #A80036; stroke-width: 1.0;"/>
        <line style="stroke: #A80036; stroke-width: 1.0;" x1="261.5" x2="506" y1="302.9766" y2="302.9766"/>
        <text fill="#000000" font-family="sans-serif" font-size="13" lengthAdjust="spacingAndGlyphs" textLength="49" x="273.5" y="298.4717">forward()</text>
        <polygon fill="#A80036" points="36.5,329.3281,26.5,333.3281,36.5,337.3281,32.5,333.3281" style="stroke: #A80036; stroke-width: 1.0;"/>
        <line style="stroke: #A80036; stroke-width: 1.0;" x1="30.5" x2="255.5" y1="333.3281" y2="333.3281"/>
        <text fill="#000000" font-family="sans-serif" font-size="13" lengthAdjust="spacingAndGlyphs" textLength="133" x="42.5" y="328.8232">Gets shown shop page</text>
        <!--
@startuml

title Login
actor User
boundary Index.jsp
boundary Shop.jsp
participant Session
participant LoginServlet
participant DataAccessObject as DAO
Database CupcakeWebshop as DB


User -> Index.jsp : Enters login information
Index.jsp -> LoginServlet : forward()
LoginServlet -> DAO : checkCustomer()
DAO -> DB : executeQuery()
LoginServlet -> Session : getSession().setAttribute()
LoginServlet -> Shop.jsp : forward()
Shop.jsp -> User : Gets shown shop page

@enduml

PlantUML version 2017.11(Wed Apr 19 18:18:59 CEST 2017)
(GPL source distribution)
Java Runtime: Java(TM) SE Runtime Environment
JVM: Java HotSpot(TM) 64-Bit Server VM
Java Version: 1.8.0_144-b01
Operating System: Windows 10
OS Version: 10.0
Default Encoding: Cp1252
Language: en
Country: GB
-->
    </g>
</svg>
