<?xml version="1.0" encoding="UTF-8"?><svg xmlns="http://www.w3.org/2000/svg" xmlns:xlink="http://www.w3.org/1999/xlink" contentScriptType="application/ecmascript" contentStyleType="text/css" height="787px" preserveAspectRatio="none" style="width:879px;height:787px;" version="1.1" viewBox="0 0 879 787" width="879px" zoomAndPan="magnify">
    <defs>
        <filter height="300%" id="f1syrl26i9il11" width="300%" x="-1" y="-1">
            <feGaussianBlur result="blurOut" stdDeviation="2.0"/>
            <feColorMatrix in="blurOut" result="blurOut2" type="matrix" values="0 0 0 0 0 0 0 0 0 0 0 0 0 0 0 0 0 0 .4 0"/>
            <feOffset dx="4.0" dy="4.0" in="blurOut2" result="blurOut3"/>
            <feBlend in="SourceGraphic" in2="blurOut3" mode="normal"/>
        </filter>
    </defs>
    <g>
        <text fill="#000000" font-family="sans-serif" font-size="14" font-weight="bold" lengthAdjust="spacingAndGlyphs" textLength="198" x="347" y="24.5332">"Login - Sequence Diagram"</text>
        <line style="stroke: #A80036; stroke-width: 1.0; stroke-dasharray: 5.0,5.0;" x1="25" x2="25" y1="119.2188" y2="701.8984"/>
        <line style="stroke: #A80036; stroke-width: 1.0; stroke-dasharray: 5.0,5.0;" x1="191" x2="191" y1="119.2188" y2="701.8984"/>
        <line style="stroke: #A80036; stroke-width: 1.0; stroke-dasharray: 5.0,5.0;" x1="286" x2="286" y1="119.2188" y2="701.8984"/>
        <line style="stroke: #A80036; stroke-width: 1.0; stroke-dasharray: 5.0,5.0;" x1="414" x2="414" y1="119.2188" y2="701.8984"/>
        <line style="stroke: #A80036; stroke-width: 1.0; stroke-dasharray: 5.0,5.0;" x1="542" x2="542" y1="119.2188" y2="701.8984"/>
        <line style="stroke: #A80036; stroke-width: 1.0; stroke-dasharray: 5.0,5.0;" x1="685" x2="685" y1="119.2188" y2="701.8984"/>
        <line style="stroke: #A80036; stroke-width: 1.0; stroke-dasharray: 5.0,5.0;" x1="823" x2="823" y1="119.2188" y2="701.8984"/>
        <text fill="#000000" font-family="sans-serif" font-size="14" lengthAdjust="spacingAndGlyphs" textLength="29" x="8" y="116.1426">User</text>
        <ellipse cx="25.5" cy="44.6094" fill="#FEFECE" filter="url(#f1syrl26i9il11)" rx="8" ry="8" style="stroke: #A80036; stroke-width: 2.0;"/>
        <path d="M25.5,52.6094 L25.5,79.6094 M12.5,60.6094 L38.5,60.6094 M25.5,79.6094 L12.5,94.6094 M25.5,79.6094 L38.5,94.6094 " fill="#FEFECE" filter="url(#f1syrl26i9il11)" style="stroke: #A80036; stroke-width: 2.0;"/>
        <text fill="#000000" font-family="sans-serif" font-size="14" lengthAdjust="spacingAndGlyphs" textLength="29" x="8" y="715.4316">User</text>
        <ellipse cx="25.5" cy="728.5078" fill="#FEFECE" filter="url(#f1syrl26i9il11)" rx="8" ry="8" style="stroke: #A80036; stroke-width: 2.0;"/>
        <path d="M25.5,736.5078 L25.5,763.5078 M12.5,744.5078 L38.5,744.5078 M25.5,763.5078 L12.5,778.5078 M25.5,763.5078 L38.5,778.5078 " fill="#FEFECE" filter="url(#f1syrl26i9il11)" style="stroke: #A80036; stroke-width: 2.0;"/>
        <text fill="#000000" font-family="sans-serif" font-size="14" lengthAdjust="spacingAndGlyphs" textLength="55" x="161" y="116.1426">Shop.jsp</text>
        <path d="M171,73.6094 L171,97.6094 M171,85.6094 L188,85.6094 " fill="#FEFECE" filter="url(#f1syrl26i9il11)" style="stroke: #A80036; stroke-width: 2.0;"/>
        <ellipse cx="200" cy="85.6094" fill="#FEFECE" filter="url(#f1syrl26i9il11)" rx="12" ry="12" style="stroke: #A80036; stroke-width: 2.0;"/>
        <text fill="#000000" font-family="sans-serif" font-size="14" lengthAdjust="spacingAndGlyphs" textLength="55" x="161" y="715.4316">Shop.jsp</text>
        <path d="M171,722.5078 L171,746.5078 M171,734.5078 L188,734.5078 " fill="#FEFECE" filter="url(#f1syrl26i9il11)" style="stroke: #A80036; stroke-width: 2.0;"/>
        <ellipse cx="200" cy="734.5078" fill="#FEFECE" filter="url(#f1syrl26i9il11)" rx="12" ry="12" style="stroke: #A80036; stroke-width: 2.0;"/>
        <text fill="#000000" font-family="sans-serif" font-size="14" lengthAdjust="spacingAndGlyphs" textLength="102" x="232" y="116.1426">Confirmation.jsp</text>
        <path d="M265.5,73.6094 L265.5,97.6094 M265.5,85.6094 L282.5,85.6094 " fill="#FEFECE" filter="url(#f1syrl26i9il11)" style="stroke: #A80036; stroke-width: 2.0;"/>
        <ellipse cx="294.5" cy="85.6094" fill="#FEFECE" filter="url(#f1syrl26i9il11)" rx="12" ry="12" style="stroke: #A80036; stroke-width: 2.0;"/>
        <text fill="#000000" font-family="sans-serif" font-size="14" lengthAdjust="spacingAndGlyphs" textLength="102" x="232" y="715.4316">Confirmation.jsp</text>
        <path d="M265.5,722.5078 L265.5,746.5078 M265.5,734.5078 L282.5,734.5078 " fill="#FEFECE" filter="url(#f1syrl26i9il11)" style="stroke: #A80036; stroke-width: 2.0;"/>
        <ellipse cx="294.5" cy="734.5078" fill="#FEFECE" filter="url(#f1syrl26i9il11)" rx="12" ry="12" style="stroke: #A80036; stroke-width: 2.0;"/>
        <rect fill="#FEFECE" filter="url(#f1syrl26i9il11)" height="31.6094" style="stroke: #A80036; stroke-width: 1.5;" width="101" x="362" y="82.6094"/>
        <text fill="#000000" font-family="sans-serif" font-size="14" lengthAdjust="spacingAndGlyphs" textLength="87" x="369" y="104.1426">ShoppingCart</text>
        <rect fill="#FEFECE" filter="url(#f1syrl26i9il11)" height="31.6094" style="stroke: #A80036; stroke-width: 1.5;" width="101" x="362" y="700.8984"/>
        <text fill="#000000" font-family="sans-serif" font-size="14" lengthAdjust="spacingAndGlyphs" textLength="87" x="369" y="722.4316">ShoppingCart</text>
        <rect fill="#FEFECE" filter="url(#f1syrl26i9il11)" height="31.6094" style="stroke: #A80036; stroke-width: 1.5;" width="127" x="477" y="82.6094"/>
        <text fill="#000000" font-family="sans-serif" font-size="14" lengthAdjust="spacingAndGlyphs" textLength="113" x="484" y="104.1426">ShopConfirmation</text>
        <rect fill="#FEFECE" filter="url(#f1syrl26i9il11)" height="31.6094" style="stroke: #A80036; stroke-width: 1.5;" width="127" x="477" y="700.8984"/>
        <text fill="#000000" font-family="sans-serif" font-size="14" lengthAdjust="spacingAndGlyphs" textLength="113" x="484" y="722.4316">ShopConfirmation</text>
        <rect fill="#FEFECE" filter="url(#f1syrl26i9il11)" height="31.6094" style="stroke: #A80036; stroke-width: 1.5;" width="130" x="618" y="82.6094"/>
        <text fill="#000000" font-family="sans-serif" font-size="14" lengthAdjust="spacingAndGlyphs" textLength="116" x="625" y="104.1426">DataAccessObject</text>
        <rect fill="#FEFECE" filter="url(#f1syrl26i9il11)" height="31.6094" style="stroke: #A80036; stroke-width: 1.5;" width="130" x="618" y="700.8984"/>
        <text fill="#000000" font-family="sans-serif" font-size="14" lengthAdjust="spacingAndGlyphs" textLength="116" x="625" y="722.4316">DataAccessObject</text>
        <text fill="#000000" font-family="sans-serif" font-size="14" lengthAdjust="spacingAndGlyphs" textLength="116" x="762" y="116.1426">CupcakeWebshop</text>
        <path d="M805,65.6094 C805,55.6094 823,55.6094 823,55.6094 C823,55.6094 841,55.6094 841,65.6094 L841,91.6094 C841,101.6094 823,101.6094 823,101.6094 C823,101.6094 805,101.6094 805,91.6094 L805,65.6094 " fill="#FEFECE" filter="url(#f1syrl26i9il11)" style="stroke: #000000; stroke-width: 1.5;"/>
        <path d="M805,65.6094 C805,75.6094 823,75.6094 823,75.6094 C823,75.6094 841,75.6094 841,65.6094 " fill="none" style="stroke: #000000; stroke-width: 1.5;"/>
        <text fill="#000000" font-family="sans-serif" font-size="14" lengthAdjust="spacingAndGlyphs" textLength="116" x="762" y="715.4316">CupcakeWebshop</text>
        <path d="M805,728.5078 C805,718.5078 823,718.5078 823,718.5078 C823,718.5078 841,718.5078 841,728.5078 L841,754.5078 C841,764.5078 823,764.5078 823,764.5078 C823,764.5078 805,764.5078 805,754.5078 L805,728.5078 " fill="#FEFECE" filter="url(#f1syrl26i9il11)" style="stroke: #000000; stroke-width: 1.5;"/>
        <path d="M805,728.5078 C805,738.5078 823,738.5078 823,738.5078 C823,738.5078 841,738.5078 841,728.5078 " fill="none" style="stroke: #000000; stroke-width: 1.5;"/>
        <polygon fill="#A80036" points="179.5,131.2188,189.5,135.2188,179.5,139.2188,183.5,135.2188" style="stroke: #A80036; stroke-width: 1.0;"/>
        <line style="stroke: #A80036; stroke-width: 1.0;" x1="25.5" x2="185.5" y1="135.2188" y2="135.2188"/>
        <polygon fill="#A80036" points="402.5,161.2188,412.5,165.2188,402.5,169.2188,406.5,165.2188" style="stroke: #A80036; stroke-width: 1.0;"/>
        <line style="stroke: #A80036; stroke-width: 1.0;" x1="191.5" x2="408.5" y1="165.2188" y2="165.2188"/>
        <text fill="#000000" font-family="sans-serif" font-size="13" lengthAdjust="spacingAndGlyphs" textLength="199" x="198.5" y="160.7139">request.getSession().getAttribute()</text>
        <polygon fill="#A80036" points="673,207.5703,683,211.5703,673,215.5703,677,211.5703" style="stroke: #A80036; stroke-width: 1.0;"/>
        <line style="stroke: #A80036; stroke-width: 1.0;" x1="414.5" x2="679" y1="211.5703" y2="211.5703"/>
        <text fill="#000000" font-family="sans-serif" font-size="13" lengthAdjust="spacingAndGlyphs" textLength="75" x="421.5" y="191.0654">getBottoms()</text>
        <text fill="#000000" font-family="sans-serif" font-size="13" lengthAdjust="spacingAndGlyphs" textLength="78" x="425.5" y="207.417">getToppings()</text>
        <polygon fill="#A80036" points="425.5,254.2734,415.5,258.2734,425.5,262.2734,421.5,258.2734" style="stroke: #A80036; stroke-width: 1.0;"/>
        <line style="stroke: #A80036; stroke-width: 1.0;" x1="419.5" x2="684" y1="258.2734" y2="258.2734"/>
        <text fill="#000000" font-family="sans-serif" font-size="13" lengthAdjust="spacingAndGlyphs" textLength="79" x="431.5" y="237.7686">List&lt;Bottom&gt;</text>
        <text fill="#000000" font-family="sans-serif" font-size="13" lengthAdjust="spacingAndGlyphs" textLength="82" x="435.5" y="254.1201">List&lt;Topping&gt;</text>
        <polygon fill="#A80036" points="202.5,284.9766,192.5,288.9766,202.5,292.9766,198.5,288.9766" style="stroke: #A80036; stroke-width: 1.0;"/>
        <line style="stroke: #A80036; stroke-width: 1.0;" x1="196.5" x2="413.5" y1="288.9766" y2="288.9766"/>
        <text fill="#000000" font-family="sans-serif" font-size="13" lengthAdjust="spacingAndGlyphs" textLength="178" x="208.5" y="284.4717">List&lt;Bottom&gt; &amp; List&lt;Topping&gt;</text>
        <polygon fill="#A80036" points="179.5,315.3281,189.5,319.3281,179.5,323.3281,183.5,319.3281" style="stroke: #A80036; stroke-width: 1.0;"/>
        <line style="stroke: #A80036; stroke-width: 1.0;" x1="25.5" x2="185.5" y1="319.3281" y2="319.3281"/>
        <text fill="#000000" font-family="sans-serif" font-size="13" lengthAdjust="spacingAndGlyphs" textLength="142" x="32.5" y="314.8232">choose cupcake and qty</text>
        <polygon fill="#A80036" points="402.5,345.6797,412.5,349.6797,402.5,353.6797,406.5,349.6797" style="stroke: #A80036; stroke-width: 1.0;"/>
        <line style="stroke: #A80036; stroke-width: 1.0;" x1="191.5" x2="408.5" y1="349.6797" y2="349.6797"/>
        <text fill="#000000" font-family="sans-serif" font-size="13" lengthAdjust="spacingAndGlyphs" textLength="163" x="198.5" y="345.1748">itemList.add(new LineItem())</text>
        <polygon fill="#A80036" points="202.5,376.0313,192.5,380.0313,202.5,384.0313,198.5,380.0313" style="stroke: #A80036; stroke-width: 1.0;"/>
        <line style="stroke: #A80036; stroke-width: 1.0;" x1="196.5" x2="413.5" y1="380.0313" y2="380.0313"/>
        <text fill="#000000" font-family="sans-serif" font-size="13" lengthAdjust="spacingAndGlyphs" textLength="75" x="208.5" y="375.5264">print itemList</text>
        <polygon fill="#A80036" points="179.5,406.3828,189.5,410.3828,179.5,414.3828,183.5,410.3828" style="stroke: #A80036; stroke-width: 1.0;"/>
        <line style="stroke: #A80036; stroke-width: 1.0;" x1="25.5" x2="185.5" y1="410.3828" y2="410.3828"/>
        <text fill="#000000" font-family="sans-serif" font-size="13" lengthAdjust="spacingAndGlyphs" textLength="127" x="32.5" y="405.8779">Order list of cupcakes</text>
        <polygon fill="#A80036" points="530.5,436.7344,540.5,440.7344,530.5,444.7344,534.5,440.7344" style="stroke: #A80036; stroke-width: 1.0;"/>
        <line style="stroke: #A80036; stroke-width: 1.0;" x1="191.5" x2="536.5" y1="440.7344" y2="440.7344"/>
        <text fill="#000000" font-family="sans-serif" font-size="13" lengthAdjust="spacingAndGlyphs" textLength="153" x="198.5" y="436.2295">forward(request, response)</text>
        <polygon fill="#A80036" points="673,467.0859,683,471.0859,673,475.0859,677,471.0859" style="stroke: #A80036; stroke-width: 1.0;"/>
        <line style="stroke: #A80036; stroke-width: 1.0;" x1="542.5" x2="679" y1="471.0859" y2="471.0859"/>
        <text fill="#000000" font-family="sans-serif" font-size="13" lengthAdjust="spacingAndGlyphs" textLength="63" x="549.5" y="466.5811">newOrder()</text>
        <polygon fill="#A80036" points="811,497.4375,821,501.4375,811,505.4375,815,501.4375" style="stroke: #A80036; stroke-width: 1.0;"/>
        <line style="stroke: #A80036; stroke-width: 1.0;" x1="685" x2="817" y1="501.4375" y2="501.4375"/>
        <text fill="#000000" font-family="sans-serif" font-size="13" lengthAdjust="spacingAndGlyphs" textLength="95" x="692" y="496.9326">executeUpdate()</text>
        <polygon fill="#A80036" points="553.5,527.7891,543.5,531.7891,553.5,535.7891,549.5,531.7891" style="stroke: #A80036; stroke-width: 1.0;"/>
        <line style="stroke: #A80036; stroke-width: 1.0;" x1="547.5" x2="822" y1="531.7891" y2="531.7891"/>
        <text fill="#000000" font-family="sans-serif" font-size="13" lengthAdjust="spacingAndGlyphs" textLength="19" x="559.5" y="527.2842">OK</text>
        <polygon fill="#A80036" points="673,558.1406,683,562.1406,673,566.1406,677,562.1406" style="stroke: #A80036; stroke-width: 1.0;"/>
        <line style="stroke: #A80036; stroke-width: 1.0;" x1="542.5" x2="679" y1="562.1406" y2="562.1406"/>
        <text fill="#000000" font-family="sans-serif" font-size="13" lengthAdjust="spacingAndGlyphs" textLength="72" x="549.5" y="557.6357">newLineItem</text>
        <polygon fill="#A80036" points="811,588.4922,821,592.4922,811,596.4922,815,592.4922" style="stroke: #A80036; stroke-width: 1.0;"/>
        <line style="stroke: #A80036; stroke-width: 1.0;" x1="685" x2="817" y1="592.4922" y2="592.4922"/>
        <text fill="#000000" font-family="sans-serif" font-size="13" lengthAdjust="spacingAndGlyphs" textLength="95" x="692" y="587.9873">executeUpdate()</text>
        <polygon fill="#A80036" points="553.5,618.8438,543.5,622.8438,553.5,626.8438,549.5,622.8438" style="stroke: #A80036; stroke-width: 1.0;"/>
        <line style="stroke: #A80036; stroke-width: 1.0;" x1="547.5" x2="822" y1="622.8438" y2="622.8438"/>
        <text fill="#000000" font-family="sans-serif" font-size="13" lengthAdjust="spacingAndGlyphs" textLength="19" x="559.5" y="618.3389">OK</text>
        <polygon fill="#A80036" points="297,649.1953,287,653.1953,297,657.1953,293,653.1953" style="stroke: #A80036; stroke-width: 1.0;"/>
        <line style="stroke: #A80036; stroke-width: 1.0;" x1="291" x2="541.5" y1="653.1953" y2="653.1953"/>
        <text fill="#000000" font-family="sans-serif" font-size="13" lengthAdjust="spacingAndGlyphs" textLength="153" x="303" y="648.6904">forward(request, response)</text>
        <polygon fill="#A80036" points="36.5,679.5469,26.5,683.5469,36.5,687.5469,32.5,683.5469" style="stroke: #A80036; stroke-width: 1.0;"/>
        <line style="stroke: #A80036; stroke-width: 1.0;" x1="30.5" x2="285" y1="683.5469" y2="683.5469"/>
        <text fill="#000000" font-family="sans-serif" font-size="13" lengthAdjust="spacingAndGlyphs" textLength="172" x="42.5" y="679.042">Order confirmed. Shows order</text>
        <!--
@startuml

title "Login - Sequence Diagram"

actor User
boundary Shop.jsp
boundary Confirmation.jsp
participant ShoppingCart
participant ShopConfirmation
participant DataAccessObject as DAO
database CupcakeWebshop as DB

User -> Shop.jsp 
Shop.jsp -> ShoppingCart : request.getSession().getAttribute()
ShoppingCart -> DAO : getBottoms() \n getToppings()
DAO -> ShoppingCart : List<Bottom> \n List<Topping>
ShoppingCart -> Shop.jsp : List<Bottom> & List<Topping>
User -> Shop.jsp : choose cupcake and qty
Shop.jsp -> ShoppingCart : itemList.add(new LineItem())
ShoppingCart -> Shop.jsp : print itemList
User -> Shop.jsp : Order list of cupcakes
Shop.jsp -> ShopConfirmation : forward(request, response)
ShopConfirmation -> DAO : newOrder()
DAO -> DB : executeUpdate()
DB -> ShopConfirmation : OK
ShopConfirmation -> DAO : newLineItem
DAO -> DB : executeUpdate()
DB -> ShopConfirmation : OK
ShopConfirmation -> Confirmation.jsp : forward(request, response)
Confirmation.jsp -> User : Order confirmed. Shows order


@enduml

PlantUML version 2017.11(Wed Apr 19 18:18:59 CEST 2017)
(GPL source distribution)
Java Runtime: Java(TM) SE Runtime Environment
JVM: Java HotSpot(TM) 64-Bit Server VM
Java Version: 1.8.0_141-b15
Operating System: Windows 10
OS Version: 10.0
Default Encoding: Cp1252
Language: da
Country: DK
-->
    </g>
</svg>
