<?xml version="1.0" encoding="UTF-8"?><svg xmlns="http://www.w3.org/2000/svg" xmlns:xlink="http://www.w3.org/1999/xlink" contentScriptType="application/ecmascript" contentStyleType="text/css" height="718px" preserveAspectRatio="none" style="width:1367px;height:718px;" version="1.1" viewBox="0 0 1367 718" width="1367px" zoomAndPan="magnify">
    <defs>
        <filter height="300%" id="fgcdoc4oqw78p" width="300%" x="-1" y="-1">
            <feGaussianBlur result="blurOut" stdDeviation="2.0"/>
            <feColorMatrix in="blurOut" result="blurOut2" type="matrix" values="0 0 0 0 0 0 0 0 0 0 0 0 0 0 0 0 0 0 .4 0"/>
            <feOffset dx="4.0" dy="4.0" in="blurOut2" result="blurOut3"/>
            <feBlend in="SourceGraphic" in2="blurOut3" mode="normal"/>
        </filter>
    </defs>
    <g>
        <text fill="#000000" font-family="sans-serif" font-size="18" lengthAdjust="spacingAndGlyphs" textLength="83" x="651" y="18.6855">Logging in</text>
        <!--cluster registration-->
        <rect fill="#F5DEB3" filter="url(#fgcdoc4oqw78p)" height="430" rx="12.5" ry="12.5" style="stroke: #A80036; stroke-width: 1.5;" width="369" x="30" y="135.6406"/>
        <rect fill="#FFFFFF" height="396.3906" rx="12.5" ry="12.5" style="stroke: #FFFFFF; stroke-width: 1.0;" width="363" x="33" y="166.25"/>
        <line style="stroke: #A80036; stroke-width: 1.5;" x1="30" x2="399" y1="163.25" y2="163.25"/>
        <text fill="#000000" font-family="sans-serif" font-size="14" lengthAdjust="spacingAndGlyphs" textLength="71" x="179" y="154.1738">registration</text>
        <!--cluster userAccess-->
        <rect fill="#F5DEB3" filter="url(#fgcdoc4oqw78p)" height="284" rx="12.5" ry="12.5" style="stroke: #A80036; stroke-width: 1.5;" width="545" x="451" y="135.6406"/>
        <rect fill="#FFFFFF" height="250.3906" rx="12.5" ry="12.5" style="stroke: #FFFFFF; stroke-width: 1.0;" width="539" x="454" y="166.25"/>
        <line style="stroke: #A80036; stroke-width: 1.5;" x1="451" x2="996" y1="163.25" y2="163.25"/>
        <text fill="#000000" font-family="sans-serif" font-size="14" lengthAdjust="spacingAndGlyphs" textLength="73" x="687" y="154.1738">userAccess</text>
        <!--cluster adminAccess-->
        <rect fill="#F5DEB3" filter="url(#fgcdoc4oqw78p)" height="410" rx="12.5" ry="12.5" style="stroke: #A80036; stroke-width: 1.5;" width="200" x="1062" y="301.6406"/>
        <rect fill="#FFFFFF" height="376.3906" rx="12.5" ry="12.5" style="stroke: #FFFFFF; stroke-width: 1.0;" width="194" x="1065" y="332.25"/>
        <line style="stroke: #A80036; stroke-width: 1.5;" x1="1062" x2="1262" y1="329.25" y2="329.25"/>
        <text fill="#000000" font-family="sans-serif" font-size="14" lengthAdjust="spacingAndGlyphs" textLength="83" x="1120.5" y="320.1738">adminAccess</text>
        <rect fill="#1E90FF" filter="url(#fgcdoc4oqw78p)" height="50" rx="12.5" ry="12.5" style="stroke: #A80036; stroke-width: 1.5;" width="55" x="300.5" y="179.6406"/>
        <line style="stroke: #A80036; stroke-width: 1.5;" x1="300.5" x2="355.5" y1="207.25" y2="207.25"/>
        <text fill="#000000" font-family="sans-serif" font-size="14" lengthAdjust="spacingAndGlyphs" textLength="35" x="310.5" y="199.1738">Login</text>
        <rect fill="#FA8072" filter="url(#fgcdoc4oqw78p)" height="50" rx="12.5" ry="12.5" style="stroke: #A80036; stroke-width: 1.5;" width="96" x="109" y="345.6406"/>
        <line style="stroke: #A80036; stroke-width: 1.5;" x1="109" x2="205" y1="373.25" y2="373.25"/>
        <text fill="#000000" font-family="sans-serif" font-size="14" lengthAdjust="spacingAndGlyphs" textLength="76" x="119" y="365.1738">Registration</text>
        <rect fill="#1E90FF" filter="url(#fgcdoc4oqw78p)" height="50" rx="12.5" ry="12.5" style="stroke: #A80036; stroke-width: 1.5;" width="140" x="54" y="491.6406"/>
        <line style="stroke: #A80036; stroke-width: 1.5;" x1="54" x2="194" y1="519.25" y2="519.25"/>
        <text fill="#000000" font-family="sans-serif" font-size="14" lengthAdjust="spacingAndGlyphs" textLength="120" x="64" y="511.1738">RegistrationServlet</text>
        <rect fill="#FA8072" filter="url(#fgcdoc4oqw78p)" height="50" rx="12.5" ry="12.5" style="stroke: #A80036; stroke-width: 1.5;" width="87" x="254.5" y="491.6406"/>
        <line style="stroke: #A80036; stroke-width: 1.5;" x1="254.5" x2="341.5" y1="519.25" y2="519.25"/>
        <text fill="#000000" font-family="sans-serif" font-size="14" lengthAdjust="spacingAndGlyphs" textLength="67" x="264.5" y="511.1738">regSucces</text>
        <rect fill="#1E90FF" filter="url(#fgcdoc4oqw78p)" height="50" rx="12.5" ry="12.5" style="stroke: #A80036; stroke-width: 1.5;" width="107" x="475.5" y="345.6406"/>
        <line style="stroke: #A80036; stroke-width: 1.5;" x1="475.5" x2="582.5" y1="373.25" y2="373.25"/>
        <text fill="#000000" font-family="sans-serif" font-size="14" lengthAdjust="spacingAndGlyphs" textLength="87" x="485.5" y="365.1738">ShoppingCart</text>
        <rect fill="#FA8072" filter="url(#fgcdoc4oqw78p)" height="50" rx="12.5" ry="12.5" style="stroke: #A80036; stroke-width: 1.5;" width="53" x="483.5" y="179.6406"/>
        <line style="stroke: #A80036; stroke-width: 1.5;" x1="483.5" x2="536.5" y1="207.25" y2="207.25"/>
        <text fill="#000000" font-family="sans-serif" font-size="14" lengthAdjust="spacingAndGlyphs" textLength="33" x="493.5" y="199.1738">Shop</text>
        <rect fill="#1E90FF" filter="url(#fgcdoc4oqw78p)" height="50" rx="12.5" ry="12.5" style="stroke: #A80036; stroke-width: 1.5;" width="137" x="639.5" y="179.6406"/>
        <line style="stroke: #A80036; stroke-width: 1.5;" x1="639.5" x2="776.5" y1="207.25" y2="207.25"/>
        <text fill="#000000" font-family="sans-serif" font-size="14" lengthAdjust="spacingAndGlyphs" textLength="117" x="649.5" y="199.1738">OrderConfirmation</text>
        <rect fill="#FA8072" filter="url(#fgcdoc4oqw78p)" height="50" rx="12.5" ry="12.5" style="stroke: #A80036; stroke-width: 1.5;" width="100" x="618" y="345.6406"/>
        <line style="stroke: #A80036; stroke-width: 1.5;" x1="618" x2="718" y1="373.25" y2="373.25"/>
        <text fill="#000000" font-family="sans-serif" font-size="14" lengthAdjust="spacingAndGlyphs" textLength="80" x="628" y="365.1738">Confirmation</text>
        <rect fill="#FA8072" filter="url(#fgcdoc4oqw78p)" height="50" rx="12.5" ry="12.5" style="stroke: #A80036; stroke-width: 1.5;" width="66" x="849" y="179.6406"/>
        <line style="stroke: #A80036; stroke-width: 1.5;" x1="849" x2="915" y1="207.25" y2="207.25"/>
        <text fill="#000000" font-family="sans-serif" font-size="14" lengthAdjust="spacingAndGlyphs" textLength="46" x="859" y="199.1738">NavBar</text>
        <rect fill="#1E90FF" filter="url(#fgcdoc4oqw78p)" height="50" rx="12.5" ry="12.5" style="stroke: #A80036; stroke-width: 1.5;" width="86" x="878" y="345.6406"/>
        <line style="stroke: #A80036; stroke-width: 1.5;" x1="878" x2="964" y1="373.25" y2="373.25"/>
        <text fill="#000000" font-family="sans-serif" font-size="14" lengthAdjust="spacingAndGlyphs" textLength="66" x="888" y="365.1738">Navigation</text>
        <rect fill="#1E90FF" filter="url(#fgcdoc4oqw78p)" height="50" rx="12.5" ry="12.5" style="stroke: #A80036; stroke-width: 1.5;" width="89" x="753.5" y="345.6406"/>
        <line style="stroke: #A80036; stroke-width: 1.5;" x1="753.5" x2="842.5" y1="373.25" y2="373.25"/>
        <text fill="#000000" font-family="sans-serif" font-size="14" lengthAdjust="spacingAndGlyphs" textLength="69" x="763.5" y="365.1738">MyAccount</text>
        <rect fill="#1E90FF" filter="url(#fgcdoc4oqw78p)" height="50" rx="12.5" ry="12.5" style="stroke: #A80036; stroke-width: 1.5;" width="109" x="1105.5" y="345.6406"/>
        <line style="stroke: #A80036; stroke-width: 1.5;" x1="1105.5" x2="1214.5" y1="373.25" y2="373.25"/>
        <text fill="#000000" font-family="sans-serif" font-size="14" lengthAdjust="spacingAndGlyphs" textLength="89" x="1115.5" y="365.1738">Administration</text>
        <rect fill="#FA8072" filter="url(#fgcdoc4oqw78p)" height="50" rx="12.5" ry="12.5" style="stroke: #A80036; stroke-width: 1.5;" width="59" x="1107.5" y="491.6406"/>
        <line style="stroke: #A80036; stroke-width: 1.5;" x1="1107.5" x2="1166.5" y1="519.25" y2="519.25"/>
        <text fill="#000000" font-family="sans-serif" font-size="14" lengthAdjust="spacingAndGlyphs" textLength="39" x="1117.5" y="511.1738">Admin</text>
        <rect fill="#1E90FF" filter="url(#fgcdoc4oqw78p)" height="50" rx="12.5" ry="12.5" style="stroke: #A80036; stroke-width: 1.5;" width="103" x="1094.5" y="637.6406"/>
        <line style="stroke: #A80036; stroke-width: 1.5;" x1="1094.5" x2="1197.5" y1="665.25" y2="665.25"/>
        <text fill="#000000" font-family="sans-serif" font-size="14" lengthAdjust="spacingAndGlyphs" textLength="83" x="1104.5" y="657.1738">AdminServlet</text>
        <rect fill="#F0E68C" filter="url(#fgcdoc4oqw78p)" height="50" rx="12.5" ry="12.5" style="stroke: #A80036; stroke-width: 1.5;" width="79" x="896.5" y="30.6406"/>
        <line style="stroke: #A80036; stroke-width: 1.5;" x1="896.5" x2="975.5" y1="58.25" y2="58.25"/>
        <text fill="#000000" font-family="sans-serif" font-size="14" lengthAdjust="spacingAndGlyphs" textLength="59" x="906.5" y="50.1738">LoggedIn</text>
        <polygon fill="#FBFB77" filter="url(#fgcdoc4oqw78p)" points="697,34.1406,697,76.8438,827,76.8438,827,44.1406,817,34.1406,697,34.1406" style="stroke: #A80036; stroke-width: 1.0;"/>
        <polygon fill="#FBFB77" points="697,34.1406,697,76.8438,827,76.8438,827,59.6406,896.493,55.6406,827,51.6406,827,44.1406,817,34.1406,697,34.1406" style="stroke: #A80036; stroke-width: 1.0;"/>
        <line style="stroke: #A80036; stroke-width: 1.0;" x1="817" x2="817" y1="34.1406" y2="44.1406"/>
        <line style="stroke: #A80036; stroke-width: 1.0;" x1="827" x2="817" y1="44.1406" y2="44.1406"/>
        <text fill="#000000" font-family="sans-serif" font-size="13" lengthAdjust="spacingAndGlyphs" textLength="109" x="703" y="52.6357">Username and role</text>
        <text fill="#000000" font-family="sans-serif" font-size="13" lengthAdjust="spacingAndGlyphs" textLength="99" x="703" y="68.9873">stored in session</text>
        <ellipse cx="1021" cy="55.6406" fill="#000000" filter="url(#fgcdoc4oqw78p)" rx="10" ry="10" style="stroke: none; stroke-width: 1.0;"/>
        <rect fill="#FA8072" filter="url(#fgcdoc4oqw78p)" height="50" rx="12.5" ry="12.5" style="stroke: #A80036; stroke-width: 1.5;" width="53" x="1100.5" y="30.6406"/>
        <line style="stroke: #A80036; stroke-width: 1.5;" x1="1100.5" x2="1153.5" y1="58.25" y2="58.25"/>
        <text fill="#000000" font-family="sans-serif" font-size="14" lengthAdjust="spacingAndGlyphs" textLength="33" x="1110.5" y="50.1738">index</text>
        <ellipse cx="1331" cy="516.6406" fill="none" filter="url(#fgcdoc4oqw78p)" rx="10" ry="10" style="stroke: #000000; stroke-width: 1.0;"/>
        <ellipse cx="1331.5" cy="517.1406" fill="#000000" rx="6" ry="6" style="stroke: none; stroke-width: 1.0;"/>
        <rect fill="#FA8072" filter="url(#fgcdoc4oqw78p)" height="50" rx="12.5" ry="12.5" style="stroke: #A80036; stroke-width: 1.5;" width="84" x="954" y="491.6406"/>
        <line style="stroke: #A80036; stroke-width: 1.5;" x1="954" x2="1038" y1="519.25" y2="519.25"/>
        <text fill="#000000" font-family="sans-serif" font-size="14" lengthAdjust="spacingAndGlyphs" textLength="64" x="964" y="511.1738">errorPage</text>
        <path d="M1031.35,55.6406 C1052.68,55.6406 1074.01,55.6406 1095.34,55.6406 " fill="none" style="stroke: #A80036; stroke-width: 1.0;"/>
        <polygon fill="#A80036" points="1100.47,55.6406,1091.47,51.6406,1095.47,55.6406,1091.47,59.6406,1100.47,55.6406" style="stroke: #A80036; stroke-width: 1.0;"/>
        <path d="M1100.32,66.6056 C1085.44,71.7176 1066.43,77.5136 1049,80.6406 C973.527,94.1816 421.882,74.3616 360,119.6406 C342.732,132.2756 334.782,155.4716 331.122,174.2916 " fill="none" style="stroke: #A80036; stroke-width: 1.0;"/>
        <polygon fill="#A80036" points="330.199,179.4716,335.7157,171.3128,331.0761,174.5492,327.8398,169.9095,330.199,179.4716" style="stroke: #A80036; stroke-width: 1.0;"/>
        <path d="M302.768,229.8396 C271.612,259.7206 218.73,310.4376 185.952,341.8746 " fill="none" style="stroke: #A80036; stroke-width: 1.0;"/>
        <polygon fill="#A80036" points="182.057,345.6096,191.321,342.2661,185.6653,342.1484,185.783,336.4928,182.057,345.6096" style="stroke: #A80036; stroke-width: 1.0;"/>
        <path d="M108.964,394.7556 C90.0885,406.5466 70.4626,422.8446 60,443.6406 C51.7553,460.0276 62.3251,475.5906 77.1003,488.0266 " fill="none" style="stroke: #A80036; stroke-width: 1.0;"/>
        <polygon fill="#A80036" points="81.367,491.4496,76.8499,482.6977,77.4669,488.3208,71.8438,488.9379,81.367,491.4496" style="stroke: #A80036; stroke-width: 1.0;"/>
        <path d="M103.6393,491.5256 C94.439,477.6426 86.8576,459.7966 93,443.6406 C99.3559,426.9236 111.569,411.6086 123.638,399.4426 " fill="none" style="stroke: #A80036; stroke-width: 1.0;"/>
        <polygon fill="#A80036" points="127.372,395.7696,118.1506,399.2289,123.8073,399.2757,123.7604,404.9324,127.372,395.7696" style="stroke: #A80036; stroke-width: 1.0;"/>
        <text fill="#000000" font-family="sans-serif" font-size="13" lengthAdjust="spacingAndGlyphs" textLength="96" x="94" y="458.1357">Registration fails</text>
        <path d="M180.6,395.7426 C205.408,421.0786 244.395,460.8956 270.559,487.6156 " fill="none" style="stroke: #A80036; stroke-width: 1.0;"/>
        <polygon fill="#A80036" points="274.323,491.4596,270.8842,482.2306,270.8248,487.8871,265.1683,487.8277,274.323,491.4596" style="stroke: #A80036; stroke-width: 1.0;"/>
        <text fill="#000000" font-family="sans-serif" font-size="13" lengthAdjust="spacingAndGlyphs" textLength="131" x="245" y="458.1357">Registration succesfull</text>
        <path d="M355.527,228.1006 C391.939,257.8096 456.078,310.1416 495.334,342.1716 " fill="none" style="stroke: #A80036; stroke-width: 1.0;"/>
        <polygon fill="#A80036" points="499.523,345.5896,495.0769,336.8014,495.6484,342.4294,490.0205,343.0008,499.523,345.5896" style="stroke: #A80036; stroke-width: 1.0;"/>
        <path d="M336.994,491.4736 C352.006,482.1596 369.307,471.4146 385,461.6406 C418.967,440.4846 457.398,416.4606 486.01,398.5576 " fill="none" style="stroke: #A80036; stroke-width: 1.0;"/>
        <polygon fill="#A80036" points="490.515,395.7386,480.7639,397.1228,486.2767,398.3913,485.0082,403.9041,490.515,395.7386" style="stroke: #A80036; stroke-width: 1.0;"/>
        <path d="M542.42,345.6026 C554.85,325.8586 575.278,299.0416 601,285.6406 C617.041,277.2836 669.855,291.0446 682,277.6406 C687.372,271.7126 686.734,266.0896 682,259.6406 C665.28,236.8666 586.596,219.3566 541.664,211.0136 " fill="none" style="stroke: #A80036; stroke-width: 1.0;"/>
        <polygon fill="#A80036" points="536.624,210.0896,544.7552,215.6469,541.542,210.9912,546.1977,207.7781,536.624,210.0896" style="stroke: #A80036; stroke-width: 1.0;"/>
        <path d="M506.197,229.7686 C504.907,239.0776 503.633,249.8296 503,259.6406 C502.485,267.6236 501.902,269.7166 503,277.6406 C505.978,299.1306 512.693,322.6596 518.553,340.5436 " fill="none" style="stroke: #A80036; stroke-width: 1.0;"/>
        <polygon fill="#A80036" points="520.179,345.4316,521.133,335.6291,518.6004,340.6874,513.5422,338.1548,520.179,345.4316" style="stroke: #A80036; stroke-width: 1.0;"/>
        <text fill="#000000" font-family="sans-serif" font-size="13" lengthAdjust="spacingAndGlyphs" textLength="169" x="504" y="274.1357">Add lineitem to shopping cart</text>
        <path d="M536.703,204.6406 C561.654,204.6406 600.077,204.6406 634.215,204.6406 " fill="none" style="stroke: #A80036; stroke-width: 1.0;"/>
        <polygon fill="#A80036" points="639.218,204.6406,630.218,200.6406,634.218,204.6406,630.218,208.6406,639.218,204.6406" style="stroke: #A80036; stroke-width: 1.0;"/>
        <text fill="#000000" font-family="sans-serif" font-size="13" lengthAdjust="spacingAndGlyphs" textLength="66" x="555" y="198.1357">Place order</text>
        <path d="M702.885,229.6916 C699.847,243.7086 695.847,261.7086 692,277.6406 C686.9,298.7606 680.7,322.4836 675.879,340.5496 " fill="none" style="stroke: #A80036; stroke-width: 1.0;"/>
        <polygon fill="#A80036" points="674.558,345.4886,680.7491,337.829,675.8508,340.6587,673.0212,335.7604,674.558,345.4886" style="stroke: #A80036; stroke-width: 1.0;"/>
        <path d="M887.755,229.8396 C894.774,259.3566 906.628,309.2036 914.121,340.7156 " fill="none" style="stroke: #A80036; stroke-width: 1.0;"/>
        <polygon fill="#A80036" points="915.285,345.6096,917.0936,335.9282,914.1279,340.7454,909.3107,337.7797,915.285,345.6096" style="stroke: #A80036; stroke-width: 1.0;"/>
        <path d="M936.876,345.5176 C974.377,288.5386 1068.29,145.8426 1108.39,84.9236 " fill="none" style="stroke: #A80036; stroke-width: 1.0;"/>
        <polygon fill="#A80036" points="1111.18,80.6816,1102.8868,85.9941,1108.428,84.8561,1109.566,90.3973,1111.18,80.6816" style="stroke: #A80036; stroke-width: 1.0;"/>
        <path d="M869.606,229.8396 C854.425,259.4776 828.745,309.6146 812.616,341.1036 " fill="none" style="stroke: #A80036; stroke-width: 1.0;"/>
        <polygon fill="#A80036" points="810.309,345.6096,817.9721,339.4227,812.5884,341.1594,810.8517,335.7757,810.309,345.6096" style="stroke: #A80036; stroke-width: 1.0;"/>
        <path d="M848.89,221.3906 C811.646,238.3416 748.909,264.6176 692,277.6406 C672.211,282.1686 619.053,276.3576 601,285.6406 C577.02,297.9706 557.689,322.0376 545.119,341.2606 " fill="none" style="stroke: #A80036; stroke-width: 1.0;"/>
        <polygon fill="#A80036" points="542.384,345.5326,550.6062,340.1109,545.0806,341.3221,543.8694,335.7964,542.384,345.5326" style="stroke: #A80036; stroke-width: 1.0;"/>
        <path d="M915.238,227.7916 C916.494,228.4396 917.751,229.0586 919,229.6406 C996.092,265.5766 1033.36,235.4116 1102,285.6406 C1121.38,299.8226 1136.5,322.5286 1146.43,340.7596 " fill="none" style="stroke: #A80036; stroke-width: 1.0;"/>
        <polygon fill="#A80036" points="1148.84,345.2906,1148.1391,335.4667,1146.4893,340.8777,1141.0783,339.2279,1148.84,345.2906" style="stroke: #A80036; stroke-width: 1.0;"/>
        <path d="M1156.15,395.7426 C1152.17,420.6636 1145.95,459.5936 1141.69,486.2906 " fill="none" style="stroke: #A80036; stroke-width: 1.0;"/>
        <polygon fill="#A80036" points="1140.86,491.4596,1146.228,483.2022,1141.6477,486.5221,1138.3279,481.9418,1140.86,491.4596" style="stroke: #A80036; stroke-width: 1.0;"/>
        <path d="M1138.51,541.7426 C1140.06,566.6636 1142.5,605.5936 1144.17,632.2906 " fill="none" style="stroke: #A80036; stroke-width: 1.0;"/>
        <polygon fill="#A80036" points="1144.49,637.4596,1147.9211,628.2278,1144.1783,632.4694,1139.9367,628.7265,1144.49,637.4596" style="stroke: #A80036; stroke-width: 1.0;"/>
        <text fill="#000000" font-family="sans-serif" font-size="13" lengthAdjust="spacingAndGlyphs" textLength="107" x="1143" y="604.1357">Search orders etc.</text>
        <path d="M996.0538,205.5538 C996.2107,205.5541 996.3697,205.5545 996.5308,205.5549 C996.853,205.5559 997.1837,205.5572 997.5226,205.5591 C1002.9458,205.5879 1010.4957,205.7323 1019.6766,206.1744 C1038.0383,207.0586 1062.924,209.1336 1090.3678,213.857 C1145.2553,223.3039 1210.375,243.3446 1254,285.6406 C1317.1,346.8246 1328.49,461.1436 1330.55,501.2716 " fill="none" style="stroke: #A80036; stroke-width: 1.0;"/>
        <polygon fill="#A80036" points="1330.79,506.6386,1334.3841,497.469,1330.5667,501.6436,1326.3921,497.8262,1330.79,506.6386" style="stroke: #A80036; stroke-width: 1.0;"/>
        <text fill="#000000" font-family="sans-serif" font-size="13" lengthAdjust="spacingAndGlyphs" textLength="43" x="1323" y="376.1357">Log out</text>
        <path d="M1262.822,494.3228 C1263.201,494.4415 1263.5791,494.5599 1263.9564,494.678 C1264.7108,494.9142 1265.4616,495.1493 1266.2086,495.3832 C1269.1965,496.3187 1272.1236,497.235 1274.9802,498.1291 C1280.6935,499.9173 1286.1251,501.6166 1291.1981,503.2033 C1301.3442,506.3767 1310.0563,509.0996 1316.72,511.1816 " fill="none" style="stroke: #A80036; stroke-width: 1.0;"/>
        <polygon fill="#A80036" points="1321.74,512.7486,1314.3533,506.2343,1316.97,511.2495,1311.9548,513.8662,1321.74,512.7486" style="stroke: #A80036; stroke-width: 1.0;"/>
        <text fill="#000000" font-family="sans-serif" font-size="13" lengthAdjust="spacingAndGlyphs" textLength="43" x="1154" y="458.1357">Log out</text>
        <path d="M399.0469,318.6273 C399.1279,319.0177 399.2097,319.4084 399.2922,319.7992 C399.6223,321.3626 399.964,322.9293 400.3177,324.4982 C401.0251,327.6362 401.7806,330.7836 402.5871,333.9331 C405.8133,346.5311 409.8572,359.1628 414.9151,371.3621 C425.0309,395.7608 439.2025,418.4299 459,435.6406 C531.81,498.9366 831.544,512.1586 948.733,514.9156 " fill="none" style="stroke: #A80036; stroke-width: 1.0;"/>
        <polygon fill="#A80036" points="953.837,515.0316,944.9296,510.8295,948.8383,514.9188,944.749,518.8275,953.837,515.0316" style="stroke: #A80036; stroke-width: 1.0;"/>
        <path d="M993.5342,420.0821 C993.5459,420.5342 993.5575,420.9854 993.5691,421.4358 C993.6621,425.0393 993.7538,428.5906 993.8438,432.0801 C994.0239,439.0592 994.1976,445.7909 994.3629,452.1973 C994.6936,465.0102 994.9906,476.5221 995.238,486.1096 " fill="none" style="stroke: #A80036; stroke-width: 1.0;"/>
        <polygon fill="#A80036" points="995.375,491.4146,999.1397,482.3137,995.245,486.4163,991.1424,482.5217,995.375,491.4146" style="stroke: #A80036; stroke-width: 1.0;"/>
        <path d="M1061.886,392.8854 C1061.8388,393.0038 1061.7914,393.1226 1061.7439,393.2417 C1061.5537,393.7183 1061.3606,394.2005 1061.1649,394.6883 C1060.7734,395.6639 1060.3711,396.6615 1059.9582,397.6792 C1059.1325,399.7147 1058.2648,401.8309 1057.3588,404.0132 C1050.11,421.4721 1040.4,443.1651 1030,461.6406 C1025.28,470.0306 1019.84,478.9466 1014.72,487.0656 " fill="none" style="stroke: #A80036; stroke-width: 1.0;"/>
        <polygon fill="#A80036" points="1011.92,491.4856,1020.1235,486.0357,1014.6021,487.2658,1013.3719,481.7444,1011.92,491.4856" style="stroke: #A80036; stroke-width: 1.0;"/>
        <!--
@startuml

Title Logging in

State LoggedIn #Khaki

note left of LoggedIn
Username and role
stored in session
end note

[*] -> index

state registration #Wheat {
index #Salmon -> Login #DodgerBlue
Login - -> Registration #Salmon
Registration - -> RegistrationServlet #DodgerBlue
RegistrationServlet - -> Registration : Registration fails
Registration - -> regSucces #Salmon  : Registration succesfull
}

state userAccess #Wheat {
Login #DodgerBlue - -> ShoppingCart #DodgerBlue
regSucces #Salmon - -> ShoppingCart
ShoppingCart - -> Shop
Shop #Salmon - -> ShoppingCart : Add lineitem to shopping cart
Shop -> OrderConfirmation : Place order
OrderConfirmation #DodgerBlue - -> Confirmation #Salmon

NavBar #Salmon - -> Navigation #DodgerBlue 
Navigation -> index
NavBar - -> MyAccount #DodgerBlue
NavBar - -> ShoppingCart

}

state adminAccess #Wheat {
NavBar -> Administration #DodgerBlue
Administration - -> Admin
Admin #Salmon - -> AdminServlet #DodgerBlue : Search orders etc.
}

userAccess - -> [*] : Log out
adminAccess - -> [*] : Log out

registration - -> errorPage #Salmon
userAccess - -> errorPage
adminAccess - -> errorPage
@enduml

PlantUML version 2017.11(Wed Apr 19 18:18:59 CEST 2017)
(GPL source distribution)
Java Runtime: Java(TM) SE Runtime Environment
JVM: Java HotSpot(TM) Client VM
Java Version: 1.8.0_144-b01
Operating System: Windows 10
OS Version: 10.0
Default Encoding: Cp1252
Language: en
Country: US
-->
    </g>
</svg>
